<svg xmlns="http://www.w3.org/2000/svg" width="1280" height="720" viewBox="0 0 1280 720" role="img" aria-label="GL Study Coach HUD preview">
  <defs>
    <linearGradient id="bg" x1="0" x2="1" y1="0" y2="1">
      <stop offset="0" stop-color="#0b1020"/>
      <stop offset="0.55" stop-color="#101827"/>
      <stop offset="1" stop-color="#18231d"/>
    </linearGradient>
    <filter id="soft" x="-10%" y="-10%" width="120%" height="120%">
      <feDropShadow dx="0" dy="18" stdDeviation="24" flood-color="#000000" flood-opacity="0.28"/>
    </filter>
  </defs>
  <rect width="1280" height="720" fill="url(#bg)"/>
  <rect x="72" y="54" width="1136" height="612" rx="22" fill="#0f172a" stroke="#2dd4bf" stroke-opacity="0.3" filter="url(#soft)"/>
  <rect x="72" y="54" width="1136" height="54" rx="22" fill="#111827"/>
  <circle cx="104" cy="82" r="7" fill="#ef4444"/>
  <circle cx="130" cy="82" r="7" fill="#f59e0b"/>
  <circle cx="156" cy="82" r="7" fill="#22c55e"/>
  <text x="190" y="88" fill="#94a3b8" font-family="Consolas, Menlo, monospace" font-size="20">guole-skill / live tutor</text>

  <text x="104" y="158" fill="#f8fafc" font-family="Inter, Arial, sans-serif" font-size="42" font-weight="700">过了.skill</text>
  <text x="104" y="196" fill="#94a3b8" font-family="Inter, Arial, sans-serif" font-size="20">短期突击 · 真题重点 · 一题一答 · 错题追踪</text>

  <rect x="104" y="236" width="512" height="242" rx="16" fill="#111827" stroke="#334155"/>
  <text x="132" y="276" fill="#38bdf8" font-family="Consolas, Menlo, monospace" font-size="20">Choose focus</text>
  <text x="132" y="318" fill="#f8fafc" font-family="Consolas, Menlo, monospace" font-size="22">KP001 [S] Matrix diagonalization</text>
  <text x="132" y="354" fill="#cbd5e1" font-family="Consolas, Menlo, monospace" font-size="18">teacher-focus · past-exams · calculation</text>
  <text x="132" y="400" fill="#f8fafc" font-family="Consolas, Menlo, monospace" font-size="22">KP002 [A] Eigenvalue definition</text>
  <text x="132" y="436" fill="#cbd5e1" font-family="Consolas, Menlo, monospace" font-size="18">slides · notes · short_answer</text>

  <rect x="664" y="236" width="440" height="242" rx="16" fill="#111827" stroke="#334155"/>
  <text x="692" y="276" fill="#22c55e" font-family="Consolas, Menlo, monospace" font-size="20">✅ 正确</text>
  <text x="692" y="320" fill="#f8fafc" font-family="Consolas, Menlo, monospace" font-size="22">Blind box: rare Sprint Token</text>
  <text x="692" y="360" fill="#cbd5e1" font-family="Consolas, Menlo, monospace" font-size="18">口诀：特征向量找方向，特征值管伸长</text>
  <text x="692" y="404" fill="#f8fafc" font-family="Consolas, Menlo, monospace" font-size="20">Next: 1 同类巩固  2 下个考点</text>

  <rect x="104" y="520" width="1000" height="76" rx="14" fill="#020617" stroke="#334155"/>
  <text x="132" y="567" fill="#eab308" font-family="Consolas, Menlo, monospace" font-size="26">EC Dia15 42XP 42% A27 C18/P5 W2 Aegis</text>
  <rect x="710" y="548" width="280" height="16" rx="8" fill="#1e293b"/>
  <rect x="710" y="548" width="118" height="16" rx="8" fill="#22c55e"/>
  <text x="104" y="636" fill="#64748b" font-family="Inter, Arial, sans-serif" font-size="18">local materials stay private · export weak points · standalone status line</text>
</svg>
